<?xml version="1.0" encoding="utf-8"?>
<!-- Generator: Adobe Illustrator 19.1.0, SVG Export Plug-In . SVG Version: 6.00 Build 0)  -->
<svg version="1.1" id="Layer_1" xmlns="http://www.w3.org/2000/svg" xmlns:xlink="http://www.w3.org/1999/xlink" x="0px" y="0px"
	 viewBox="0 0 500 500" style="enable-background:new 0 0 500 500;" xml:space="preserve">
<style type="text/css">
	.st0{fill:#453F35;}
	.st1{fill:#EBA433;}
	.st2{fill:#FFFFFF;}
</style>
<g>
	<circle class="st0" cx="244.6" cy="252.7" r="156.5"/>
	<path class="st1" d="M375.6,387.1c25.8-21.1,37-50.4,44.6-81.2c24.8-99.7-31.3-201.6-126.4-230.3C188.8,44,75.1,121.8,64,231.2
		c-5.3,52.6,14.9,100.1,45,143.2c6.9,9.9,2.6,11.9-5.8,14.4c-25.4,7.5-56-4.6-71.2-28.7c-13.9-22.1-12.4-54.3,5.5-73
		c8.5-8.8,1-17.6,1.1-29.2C39,147.2,112.7,59.1,221.8,45c106.6-13.8,198.1,61.9,222,159.6c4.8,19.4,8.3,39.3,7.1,59.5
		c-0.5,8.1,3,13.4,8.1,19.2c18.6,21,24.2,45.2,11.6,70.8c-12.4,25.1-33.4,38.4-62,36.1c-11.2-0.9-19.6,2.3-28.4,8.6
		c-26.8,19.2-57.6,28.1-90,31.7c-6,0.7-12.2,0.4-17.4,4.2c-6.4,18.5-17.5,25.2-33.7,20.5c-12.4-3.7-21.2-18.6-18.5-31.7
		c2.9-14.3,16.2-23.7,30.8-22c3.7,0.5,7.6,0.9,10,3.7c11.8,14,25.9,10.5,41.4,8.1C328.7,409,351.6,396.8,375.6,387.1z"/>
	<g>
		<path class="st2" d="M258.9,266c-0.4,1.9-0.6,3.9-1.2,5.8c-0.4,1.9-1.2,3.8-1.8,5.7l-1.3,5c-0.4,1.6-1.5,3.2-1.9,4.8
			c-0.4,1.6-0.7,3.4-1.2,5l-1.5,5c-0.4,1.3-0.6,2.6-1,3.9c-0.3,0.7-0.7,1.3-0.9,2c-0.7,1.8-1.5,3.5-2.5,4.8
			c-1.3,1.6-3.1,2.5-4.2,3.4c-2.2,1.6-4.4,2.5-6.9,2.5c-2.5,0-4.8-1-7.2-2.6c-1.5-1.2-2.9-2.5-3.9-3.9c-1-1.6-2-3.2-2.6-5.1
			c-0.6-1.8-1.3-3.6-1.9-5.5c-0.6-1.9-0.7-3.8-1.3-5.7c-0.6-1.9-1.3-3.6-1.9-5.5c-0.7-1.9-1.3-3.8-1.9-5.5c-0.6-1.9-1-3.8-1.6-5.7
			c-0.7-2.3-1.9-4.5-2.6-6.9c-0.6-1.8-0.6-3.6-1.2-5.4c-0.6-1.8-1.3-3.4-1.9-5.1c-0.6-1.6-1.5-3.4-2.2-5c-0.6-1.8-0.9-3.6-1.6-5.3
			c-1-2.5-2.6-4.5-4.7-6.1c-1.3-1.2-2.8-1.5-4.1-1.5c-1.3,0-2.6,0.4-3.9,1.6c-1.2,1.2-2.2,2.2-2.9,3.4c-1,1.3-1.8,2.5-2.2,3.8
			c-0.4,1.6-1.2,3.1-1.6,4.5c-0.6,1.5-1.2,3.1-1.6,4.5c-0.6,1.9-1,3.8-1.6,5.7c-0.7,1.9-1.2,3.8-1.8,5.5c-0.6,1.8-1.5,3.4-2,5.1
			c-0.6,1.8-1,3.5-1.5,5.3c-0.6,1.6-1.3,3.4-1.9,5.1c-0.4,1.8-1,3.5-1.5,5.1c-0.6,1.8-0.9,3.6-1.5,5.4c-1.2,3.8-1,3.8-2.2,7.6
			c-0.6,1.8-1.2,3.2-2,4.7c-0.9,1.5-1.9,2.8-3.1,3.9c-1.5,1.3-3.4,1.8-5.1,2.3c-1.8,0.6-3.5,0.9-5.4,0.7c-1.8-0.3-3.6-0.7-5.1-1.6
			c-1.5-1-2.6-2.5-3.6-3.9c-1-1.8-2-3.6-2.9-5.7c-0.7-1.9-1.5-3.8-2-6c-0.4-1.8-1-3.5-1.5-5.3c-0.6-1.8-0.9-3.5-1.5-5.3l-1.3-5.3
			c-0.6-1.8-1.5-3.4-2-5.1c-0.4-1.8-1-3.5-1.5-5.3c-0.6-1.6-0.9-3.2-1.3-4.8c-0.4-1.6-1-3.2-1.5-4.8s-0.7-3.2-1.3-4.8l-1.5-5.4
			c-0.6-1.9-1.3-3.5-1.9-5.4c-0.4-1.8-0.7-3.6-1.3-5.4c-0.4-1.9-1.5-3.5-1.9-5.4c-0.6-1.8-0.6-3.6-1.2-5.5c-0.6-1.8-1.3-3.5-1.9-5.3
			c-0.4-1.9-1-3.6-1.5-5.4l-1.6-5.5c-0.4-1.8-1-3.6-1.2-5.7s0.3-3.9,1-5.4c0.7-1.8,2.2-3.1,3.9-3.8c1.9-0.9,3.6-1.2,5.4-1
			c1.9,0.1,3.5,0.9,5.1,1.9c2.5,1.8,4.7,3.6,5.7,6.1c0.7,2,1.6,4.7,2.3,7.2c0.4,1.6,0.7,3.2,1.2,5l1.3,4.8c0.4,1.8,0.7,3.4,1.2,5
			c0.3,1.6,0.9,3.2,1.3,5c0.4,1.5,0.9,3.1,1.2,4.5c0.4,1.6,0.7,3.2,1.2,4.7c0.3,1.6,0.6,3.2,1,4.8c0.3,1.6,1,3.5,1.8,5.5
			c0.6,1.9,0.9,3.8,1.8,5.7c0.9,1.8,2.5,2.8,4.1,4.7c0.9,0.9,2.2,1.5,3.8,1.5c1.9-0.1,3.5-0.9,4.4-2c1-1.3,2.2-2.5,3.1-3.9
			c0.7-1.5,1.2-3.1,1.9-4.7s1.2-3.1,1.8-4.8c0.7-2.3,0.9-2.3,1.8-4.8c0.7-2.3,0.4-2.5,1.3-5c0.7-2.3,0.9-2.3,1.6-4.8
			c0.6-1.6,1.5-3.1,2-4.8c0.4-1.6,0.9-3.4,1.5-5c0.6-1.6,0.9-3.4,1.3-5l1.8-5c0.4-1.6,1-3.2,1.6-5c0.6-1.9,1.3-3.8,2.3-5.4
			c1.2-1.6,2.5-3.1,4.1-4.2c1.9-1.3,3.9-2.3,5.8-2.8c2.2-0.4,4.2,0,6.3,0.7c2,0.6,3.9,1.5,5.7,3.1c1,0.9,1.8,2.2,2.6,3.5
			c0.7,1.2,1.6,2.3,2.2,3.8c0.9,1.9,1.6,3.8,2.2,5.7c0.7,1.9,1.5,3.8,2,5.8c0.6,1.9,1.2,3.8,1.6,5.8c0.9,2.6,1.6,5.4,2.5,8.2
			c0.7,2.3,1.6,4.7,2.3,7.2c0.4,1.8,1,3.5,1.6,5.3s1.3,3.4,1.9,5.1c0.6,1.8,0.7,3.6,1.3,5.4c0.7,1.8,1.9,3.2,2.9,4.7
			c1,1.5,2.2,2.8,3.5,3.9c2.2,1.9,3.6,2,6,0.3c1.5-1,2.5-2.2,3.5-3.4c1-1.5,2.2-2.6,2.6-4.2c0.4-1.6,0.4-3.4,0.9-5.1
			c0.4-1.6,1.3-3.2,1.8-5c0.4-1.6,0.4-3.4,1-5.1l1.5-5c0.4-1.8,1.2-3.4,1.6-5c0.6-2.3,0.7-4.7,1.3-7c0.6-2.2,1.5-4.5,2-6.7l1.8-8
			c0.7-2.6,2-5,3.4-7.2c1.2-2,2.8-3.6,5-4.7c2.6-1.2,5.4-1.6,7.7-0.4s3.9,3.6,4.4,6.4c0.3,0.9,0.4,1.8,0.4,2.3
			c0,0.3-0.6,0.3-0.4,0.6c0,0.1,0.3,0.1,0.3,0.1c-0.1,1.8-0.6,3.4-0.9,4.8c-0.3,1.6-0.7,3.2-1.2,4.7c-0.9,2.8-0.6,2.9-1.5,5.7
			c-0.9,2.9-1.2,2.8-1.9,5.7l-1.8,5.4c-0.4,1.9-0.6,3.8-1.2,5.5c-0.6,1.9-1.5,3.6-1.9,5.4l-1.6,5.5c-0.6,1.8-0.7,3.6-1.3,5.4
			c-0.6,1.9-0.9,3.8-1.5,5.5C260.5,262.2,259.5,264.1,258.9,266z"/>
		<path class="st2" d="M363.1,207.3c1.2,1.3,2.2,2.9,3.1,4.4c0.9,1.5,1.5,3.2,2,4.8c0.6,1.8,1,3.4,1.3,5.1c0.3,1.8,0.7,3.4,0.7,5.1
			c0.1,1.6,0.1,3.4,0,5c0,1.8-0.4,3.4-0.7,5c-0.3,2-0.6,3.8-1.2,5.5c-0.6,1.9-1.2,3.6-2,5.3c-1,1.8-2.3,3.1-3.5,4.5
			c-1.2,1.5-2.3,2.9-3.8,4.2c-1.5,1-3.1,2-4.8,2.9c-1.6,0.9-3.4,1.8-5.1,2.3c-1.8,0.7-3.5,1.3-5.3,1.8c-1.8,0.4-3.6,0.4-5.4,0.7
			c-1.9,0.1-3.6,0.1-5.5,0.3c-1.8,0.1-3.6,0.4-5.4,0.4h-0.1c-2,0.1-3.9,0.1-5.8,0.3c-1.9,0-3.9,0.1-5.8,0.6c-1.9,0.4-3.6,1-5.1,1.9
			c-1.6,1-2.8,2.5-3.8,4.1c-0.9,1.5-1.5,3.1-2,5.1c-0.4,1.9-1.3,3.6-1.6,5.5c-0.3,1.9,0,3.8,0,5.8c0,1.6,0.1,3.2,0.1,5
			c0,1.6-0.4,3.4-0.4,5c0,0.7,0.4,0.7,0.4,1.5c0,2-0.3,4.2-1,6.6c-0.7,2.2-1.8,4.2-3.2,5.4c-1.6,1.3-3.8,1.8-6.1,1.8
			c0,0,0,0.1-0.1,0.1c-2.3,0-4.4-1.2-6.1-2.5c-1.6-1.5-3.1-3.4-3.5-5.7c-0.4-2-0.9-3.8-1-5.5c-0.3-2-0.4-3.9-0.4-5.8
			c0-1.9,0.1-3.9,0.1-5.8c0-2,0.3-3.9,0.3-5.8c0-2-0.3-3.9-0.3-6c0-1.9,0.1-3.9,0.1-5.8v-5.8c0-2.6-0.1-2.6-0.1-5.3v-5.3
			c0-2.8,0.4-2.8,0.4-5.5c0-2.9-0.3-2.9-0.3-5.7c0-1.8-0.3-3.6-0.3-5.4c0-1.9,0.3-3.6,0.3-5.4c0-1.9-0.1-3.6-0.1-5.5
			c0-1.8-0.1-3.5-0.1-5.4c0-1.8,0.1-3.5,0-5.4c0-1.9,0.1-3.6,0.3-5.3c0.3-1.9,0.7-3.6,1.2-5.3c0.4-1.6,0.9-3.2,1.8-4.4
			c0.9-1.3,2-2.5,3.4-3.4c1.3-0.7,2.6-1.5,4.4-1.8c2-0.4,4.4-0.7,6.7-0.7c1.2,0,1.2-0.6,2.3-0.6c2,0,3.9,0.3,6,0.3
			c1.9,0,3.9,0,6,0.1c1.9,0.1,3.9,0.3,5.8,0.6c2.8,0.3,5.5,0,8.5,0c0.9,0,1.8-0.3,2.6-0.3c1.8,0,3.6,0.4,5.4,0.6s3.6,0.1,5.4,0.3
			c2.2,0.4,4.2,1.2,6.3,1.9s4.2,1.3,6.1,2.3c1.9,1,3.4,2.6,5.1,4.1C360.3,205.2,361.9,206,363.1,207.3z M346,227.1
			c-0.3-1.8-0.3-3.5-1.2-5c-0.7-1.5-2-2.6-3.2-3.9c-1.2-1-2.6-1.9-4.2-2.8s-3.4-1.9-5.1-2.5c-1.9-0.6-3.8-0.9-5.7-1
			c-1.9-0.3-3.6-0.3-5.7-0.1c-1.9,0-3.8,0.3-5.7,0.6c-2,0.4-3.8,1.2-5.4,2.2c-1.6,1.2-3.1,2.5-4.1,4.2c-0.9,1.6-1.3,3.5-1.6,5.5
			c-0.1,1.2-0.3,2.3-0.3,3.6v1.8c0,0.1-0.3,0.1-0.3,0.3c0.1,2.6,0.6,5,1.3,7.2c0.7,2.3,1.3,4.4,2.6,6c1.5,1.6,3.2,2.8,5.4,3.5
			c1.6,0.6,3.4,1.2,5,1.5c1.8,0.3,3.5,0.1,5.3,0.1c1.8-0.1,3.4-0.4,5.1-0.9c1.6-0.3,3.4-0.4,5.1-1c1.6-0.6,2.9-1.6,4.5-2.5
			c1.6-0.9,3.1-1.6,4.2-2.8c1.3-1.2,2-2.8,2.8-4.2c0.6-1.5,1.6-3.1,1.8-4.8C346.9,230.3,346.3,228.6,346,227.1z"/>
	</g>
</g>
</svg>
